<svg width="147" height="19" viewBox="0 0 147 19" fill="none" xmlns="http://www.w3.org/2000/svg">
<path d="M0.992 18V1.2H9.2C11.312 1.2 12.896 1.6 13.952 2.4C15.024 3.2 15.56 4.256 15.56 5.568C15.56 6.448 15.344 7.216 14.912 7.872C14.48 8.512 13.888 9.008 13.136 9.36C12.384 9.712 11.52 9.888 10.544 9.888L11 8.904C12.056 8.904 12.992 9.08 13.808 9.432C14.624 9.768 15.256 10.272 15.704 10.944C16.168 11.616 16.4 12.44 16.4 13.416C16.4 14.856 15.832 15.984 14.696 16.8C13.56 17.6 11.888 18 9.68 18H0.992ZM4.856 15.072H9.392C10.4 15.072 11.16 14.912 11.672 14.592C12.2 14.256 12.464 13.728 12.464 13.008C12.464 12.304 12.2 11.784 11.672 11.448C11.16 11.096 10.4 10.92 9.392 10.92H4.568V8.088H8.72C9.664 8.088 10.384 7.928 10.88 7.608C11.392 7.272 11.648 6.768 11.648 6.096C11.648 5.44 11.392 4.952 10.88 4.632C10.384 4.296 9.664 4.128 8.72 4.128H4.856V15.072ZM19.1796 18V5.088H22.7556V8.736L22.2516 7.68C22.6356 6.768 23.2516 6.08 24.0996 5.616C24.9476 5.136 25.9796 4.896 27.1956 4.896V8.352C27.0356 8.336 26.8916 8.328 26.7636 8.328C26.6356 8.312 26.4996 8.304 26.3556 8.304C25.3316 8.304 24.4996 8.6 23.8596 9.192C23.2356 9.768 22.9236 10.672 22.9236 11.904V18H19.1796ZM36.598 18V15.48L36.358 14.928V10.416C36.358 9.616 36.11 8.992 35.614 8.544C35.134 8.096 34.39 7.872 33.382 7.872C32.694 7.872 32.014 7.984 31.342 8.208C30.686 8.416 30.126 8.704 29.662 9.072L28.318 6.456C29.022 5.96 29.87 5.576 30.862 5.304C31.854 5.032 32.862 4.896 33.886 4.896C35.854 4.896 37.382 5.36 38.47 6.288C39.558 7.216 40.102 8.664 40.102 10.632V18H36.598ZM32.662 18.192C31.654 18.192 30.79 18.024 30.07 17.688C29.35 17.336 28.798 16.864 28.414 16.272C28.03 15.68 27.838 15.016 27.838 14.28C27.838 13.512 28.022 12.84 28.39 12.264C28.774 11.688 29.374 11.24 30.19 10.92C31.006 10.584 32.07 10.416 33.382 10.416H36.814V12.6H33.79C32.91 12.6 32.302 12.744 31.966 13.032C31.646 13.32 31.486 13.68 31.486 14.112C31.486 14.592 31.67 14.976 32.038 15.264C32.422 15.536 32.942 15.672 33.598 15.672C34.222 15.672 34.782 15.528 35.278 15.24C35.774 14.936 36.134 14.496 36.358 13.92L36.934 15.648C36.662 16.48 36.166 17.112 35.446 17.544C34.726 17.976 33.798 18.192 32.662 18.192ZM51.4385 4.896C52.4625 4.896 53.3745 5.104 54.1745 5.52C54.9905 5.92 55.6305 6.544 56.0945 7.392C56.5585 8.224 56.7905 9.296 56.7905 10.608V18H53.0465V11.184C53.0465 10.144 52.8145 9.376 52.3505 8.88C51.9025 8.384 51.2625 8.136 50.4305 8.136C49.8385 8.136 49.3025 8.264 48.8225 8.52C48.3585 8.76 47.9905 9.136 47.7185 9.648C47.4625 10.16 47.3345 10.816 47.3345 11.616V18H43.5905V5.088H47.1665V8.664L46.4945 7.584C46.9585 6.72 47.6225 6.056 48.4865 5.592C49.3505 5.128 50.3345 4.896 51.4385 4.896ZM65.922 18.192C64.706 18.192 63.61 17.92 62.634 17.376C61.658 16.816 60.882 16.04 60.306 15.048C59.746 14.056 59.466 12.888 59.466 11.544C59.466 10.184 59.746 9.008 60.306 8.016C60.882 7.024 61.658 6.256 62.634 5.712C63.61 5.168 64.706 4.896 65.922 4.896C67.01 4.896 67.962 5.136 68.778 5.616C69.594 6.096 70.226 6.824 70.674 7.8C71.122 8.776 71.346 10.024 71.346 11.544C71.346 13.048 71.13 14.296 70.698 15.288C70.266 16.264 69.642 16.992 68.826 17.472C68.026 17.952 67.058 18.192 65.922 18.192ZM66.57 15.12C67.178 15.12 67.73 14.976 68.226 14.688C68.722 14.4 69.114 13.992 69.402 13.464C69.706 12.92 69.858 12.28 69.858 11.544C69.858 10.792 69.706 10.152 69.402 9.624C69.114 9.096 68.722 8.688 68.226 8.4C67.73 8.112 67.178 7.968 66.57 7.968C65.946 7.968 65.386 8.112 64.89 8.4C64.394 8.688 63.994 9.096 63.69 9.624C63.402 10.152 63.258 10.792 63.258 11.544C63.258 12.28 63.402 12.92 63.69 13.464C63.994 13.992 64.394 14.4 64.89 14.688C65.386 14.976 65.946 15.12 66.57 15.12ZM69.954 18V15.36L70.026 11.52L69.786 7.704V0.191999H73.53V18H69.954ZM84.9432 4.896C85.9672 4.896 86.8792 5.104 87.6792 5.52C88.4952 5.92 89.1352 6.544 89.5992 7.392C90.0632 8.224 90.2952 9.296 90.2952 10.608V18H86.5512V11.184C86.5512 10.144 86.3192 9.376 85.8552 8.88C85.4072 8.384 84.7672 8.136 83.9352 8.136C83.3432 8.136 82.8072 8.264 82.3272 8.52C81.8632 8.76 81.4952 9.136 81.2232 9.648C80.9672 10.16 80.8392 10.816 80.8392 11.616V18H77.0952V5.088H80.6712V8.664L79.9992 7.584C80.4632 6.72 81.1272 6.056 81.9912 5.592C82.8552 5.128 83.8392 4.896 84.9432 4.896ZM101.709 18V15.48L101.469 14.928V10.416C101.469 9.616 101.221 8.992 100.725 8.544C100.245 8.096 99.5009 7.872 98.4929 7.872C97.8049 7.872 97.1249 7.984 96.4529 8.208C95.7969 8.416 95.2369 8.704 94.7729 9.072L93.4289 6.456C94.1329 5.96 94.9809 5.576 95.9729 5.304C96.9649 5.032 97.9729 4.896 98.9969 4.896C100.965 4.896 102.493 5.36 103.581 6.288C104.669 7.216 105.213 8.664 105.213 10.632V18H101.709ZM97.7729 18.192C96.7649 18.192 95.9009 18.024 95.1809 17.688C94.4609 17.336 93.9089 16.864 93.5249 16.272C93.1409 15.68 92.9489 15.016 92.9489 14.28C92.9489 13.512 93.1329 12.84 93.5009 12.264C93.8849 11.688 94.4849 11.24 95.3009 10.92C96.1169 10.584 97.1809 10.416 98.4929 10.416H101.925V12.6H98.9009C98.0209 12.6 97.4129 12.744 97.0769 13.032C96.7569 13.32 96.5969 13.68 96.5969 14.112C96.5969 14.592 96.7809 14.976 97.1489 15.264C97.5329 15.536 98.0529 15.672 98.7089 15.672C99.3329 15.672 99.8929 15.528 100.389 15.24C100.885 14.936 101.245 14.496 101.469 13.92L102.045 15.648C101.773 16.48 101.277 17.112 100.557 17.544C99.8369 17.976 98.9089 18.192 97.7729 18.192ZM125.237 4.896C126.261 4.896 127.165 5.104 127.949 5.52C128.749 5.92 129.373 6.544 129.821 7.392C130.285 8.224 130.517 9.296 130.517 10.608V18H126.773V11.184C126.773 10.144 126.557 9.376 126.125 8.88C125.693 8.384 125.085 8.136 124.301 8.136C123.757 8.136 123.269 8.264 122.837 8.52C122.405 8.76 122.069 9.128 121.829 9.624C121.589 10.12 121.469 10.752 121.469 11.52V18H117.725V11.184C117.725 10.144 117.509 9.376 117.077 8.88C116.661 8.384 116.061 8.136 115.277 8.136C114.733 8.136 114.245 8.264 113.813 8.52C113.381 8.76 113.045 9.128 112.805 9.624C112.565 10.12 112.445 10.752 112.445 11.52V18H108.701V5.088H112.277V8.616L111.605 7.584C112.053 6.704 112.685 6.04 113.501 5.592C114.333 5.128 115.277 4.896 116.333 4.896C117.517 4.896 118.549 5.2 119.429 5.808C120.325 6.4 120.917 7.312 121.205 8.544L119.885 8.184C120.317 7.176 121.005 6.376 121.949 5.784C122.909 5.192 124.005 4.896 125.237 4.896ZM140.475 18.192C139.003 18.192 137.707 17.904 136.587 17.328C135.483 16.752 134.627 15.968 134.019 14.976C133.411 13.968 133.107 12.824 133.107 11.544C133.107 10.248 133.403 9.104 133.995 8.112C134.603 7.104 135.427 6.32 136.467 5.76C137.507 5.184 138.683 4.896 139.995 4.896C141.259 4.896 142.395 5.168 143.403 5.712C144.427 6.24 145.235 7.008 145.827 8.016C146.419 9.008 146.715 10.2 146.715 11.592C146.715 11.736 146.707 11.904 146.691 12.096C146.675 12.272 146.659 12.44 146.643 12.6H136.155V10.416H144.675L143.235 11.064C143.235 10.392 143.099 9.808 142.827 9.312C142.555 8.816 142.179 8.432 141.699 8.16C141.219 7.872 140.659 7.728 140.019 7.728C139.379 7.728 138.811 7.872 138.315 8.16C137.835 8.432 137.459 8.824 137.187 9.336C136.915 9.832 136.779 10.424 136.779 11.112V11.688C136.779 12.392 136.931 13.016 137.235 13.56C137.555 14.088 137.995 14.496 138.555 14.784C139.131 15.056 139.803 15.192 140.571 15.192C141.259 15.192 141.859 15.088 142.371 14.88C142.899 14.672 143.379 14.36 143.811 13.944L145.803 16.104C145.211 16.776 144.467 17.296 143.571 17.664C142.675 18.016 141.643 18.192 140.475 18.192Z" fill="white"/>
</svg>
